<svg width="28" height="28" viewBox="0 0 28 28" xmlns="http://www.w3.org/2000/svg">
<circle cx="14" cy="14" r="14" transform="rotate(-180 14 14)" class="social__circle"/>
<path fill-rule="evenodd" clip-rule="evenodd" d="M19.5654 12.084C19.5885 12.4904 19.6001 13.2224 19.6001 14.2799C19.6001 15.3374 19.5885 16.0694 19.5654 16.4758C19.5192 17.4363 19.2329 18.1799 18.7065 18.7063C18.18 19.2328 17.4365 19.5191 16.4759 19.5653C16.0695 19.5884 15.3376 19.5999 14.2801 19.5999C13.2225 19.5999 12.4906 19.5884 12.0842 19.5653C11.1236 19.5191 10.3801 19.2328 9.85365 18.7063C9.32719 18.1799 9.04087 17.4363 8.99469 16.4758C8.9716 16.0694 8.96005 15.3374 8.96005 14.2799C8.96005 13.2224 8.9716 12.4904 8.99469 12.084C9.04087 11.1235 9.32719 10.38 9.85365 9.8535C10.3801 9.32704 11.1236 9.04072 12.0842 8.99454C12.4906 8.97145 13.2225 8.9599 14.2801 8.9599C15.3376 8.9599 16.0695 8.97145 16.4759 8.99454C17.4365 9.04072 18.18 9.32704 18.7065 9.8535C19.2329 10.38 19.5192 11.1235 19.5654 12.084ZM18.3422 11.4264C18.3422 11.2 18.2618 11.0064 18.1009 10.8455C17.94 10.6847 17.7464 10.6042 17.52 10.6042C17.2936 10.6042 17.1 10.6847 16.9391 10.8455C16.7783 11.0064 16.6978 11.2 16.6978 11.4264C16.6978 11.6528 16.7783 11.8464 16.9391 12.0073C17.1 12.1682 17.2936 12.2486 17.52 12.2486C17.7464 12.2486 17.94 12.1682 18.1009 12.0073C18.2618 11.8464 18.3422 11.6528 18.3422 11.4264ZM16.317 14.2801C16.317 15.4053 15.4048 16.3175 14.2796 16.3175C13.1545 16.3175 12.2423 15.4053 12.2423 14.2801C12.2423 13.155 13.1545 12.2428 14.2796 12.2428C15.4048 12.2428 16.317 13.155 16.317 14.2801ZM17.1815 14.2801C17.1815 15.8828 15.8823 17.182 14.2796 17.182C12.677 17.182 11.3778 15.8828 11.3778 14.2801C11.3778 12.6775 12.677 11.3783 14.2796 11.3783C15.8823 11.3783 17.1815 12.6775 17.1815 14.2801Z" fill="#1F1F1F"/>
</svg>
