<svg width="24" height="24" viewBox="0 0 24 24" xmlns="http://www.w3.org/2000/svg">
<path d="M22.0001 16.9198V19.9198C22.0012 20.1983 21.9441 20.4739 21.8326 20.7291C21.721 20.9843 21.5574 21.2134 21.3521 21.4016C21.1469 21.5899 20.9046 21.7333 20.6408 21.8225C20.377 21.9117 20.0974 21.9448 19.8201 21.9198C16.7429 21.5854 13.7871 20.5339 11.1901 18.8498C8.77388 17.3144 6.72539 15.2659 5.19006 12.8498C3.50003 10.241 2.4483 7.27077 2.12006 4.17978C2.09507 3.90324 2.12793 3.62454 2.21656 3.3614C2.30518 3.09827 2.44763 2.85647 2.63482 2.6514C2.82202 2.44633 3.04986 2.28249 3.30385 2.1703C3.55783 2.05811 3.8324 2.00004 4.11006 1.99978H7.11006C7.59536 1.995 8.06585 2.16686 8.43382 2.48331C8.80179 2.79976 9.04213 3.23922 9.11005 3.71978C9.23668 4.67984 9.47151 5.6225 9.81006 6.52978C9.9446 6.8877 9.97372 7.27669 9.89396 7.65066C9.81421 8.02462 9.62892 8.36789 9.36005 8.63978L8.09006 9.90978C9.51361 12.4133 11.5865 14.4862 14.0901 15.9098L15.3601 14.6398C15.6319 14.3709 15.9752 14.1856 16.3492 14.1059C16.7231 14.0261 17.1121 14.0552 17.4701 14.1898C18.3773 14.5283 19.32 14.7632 20.2801 14.8898C20.7658 14.9583 21.2095 15.203 21.5266 15.5773C21.8437 15.9516 22.0122 16.4294 22.0001 16.9198Z" stroke-linecap="round" stroke-linejoin="round"/>
</svg>
