<svg width="28" height="28" viewBox="0 0 28 28" xmlns="http://www.w3.org/2000/svg">
<circle cx="14" cy="14" r="14" transform="rotate(-180 14 14)" class="social__circle"/>
<path d="M13.8162 11.1509L13.8437 11.6188L13.3839 11.5615C11.7102 11.3419 10.2481 10.597 9.00657 9.34608L8.39963 8.72537L8.24329 9.18374C7.91223 10.2055 8.12374 11.2846 8.81345 12.0103C9.1813 12.4114 9.09853 12.4687 8.464 12.23C8.24329 12.1536 8.05017 12.0963 8.03178 12.1249C7.96741 12.1918 8.18811 13.0608 8.36284 13.4045C8.60194 13.882 9.08934 14.3499 9.62271 14.6269L10.0733 14.8465L9.53995 14.856C9.02496 14.856 9.00657 14.8656 9.06175 15.0661C9.24567 15.6868 9.97217 16.3457 10.7814 16.6322L11.3516 16.8327L10.855 17.1383C10.1193 17.5776 9.25487 17.8259 8.39043 17.845C7.9766 17.8545 7.63634 17.8927 7.63634 17.9214C7.63634 18.0169 8.75828 18.5516 9.4112 18.7617C11.37 19.3824 13.6966 19.115 15.4439 18.0551C16.6854 17.3007 17.9268 15.8014 18.5062 14.3499C18.8189 13.5764 19.1315 12.1631 19.1315 11.4851C19.1315 11.0459 19.1591 10.9886 19.6741 10.4633C19.9776 10.1578 20.2627 9.82354 20.3178 9.72805C20.4098 9.54661 20.4006 9.54661 19.9316 9.70895C19.1499 9.99543 19.0396 9.95723 19.4258 9.52751C19.7109 9.22194 20.0512 8.66807 20.0512 8.50574C20.0512 8.47709 19.9132 8.52483 19.7569 8.61078C19.5913 8.70627 19.2235 8.84951 18.9476 8.93546L18.451 9.09779L18.0004 8.78267C17.7521 8.61078 17.4027 8.41979 17.2187 8.3625C16.7497 8.22881 16.0324 8.2479 15.6094 8.40069C14.4599 8.83041 13.7334 9.93813 13.8162 11.1509Z" fill="#1F1F1F"/>
</svg>
