<svg width="340" height="340" viewBox="0 0 340 340" fill="none" xmlns="http://www.w3.org/2000/svg">
<path d="M28.8334 169V29.3337C28.8334 29.0576 29.0572 28.8337 29.3334 28.8337H154.833C155.11 28.8337 155.333 29.0576 155.333 29.3337V169C155.333 169.277 155.11 169.5 154.833 169.5H29.3334C29.0572 169.5 28.8334 169.277 28.8334 169ZM184.667 98.1671V29.3337C184.667 29.0576 184.891 28.8337 185.167 28.8337H310.667C310.943 28.8337 311.167 29.0576 311.167 29.3337V98.1671C311.167 98.4432 310.943 98.6671 310.667 98.6671H185.167C184.891 98.6671 184.667 98.4432 184.667 98.1671ZM184.667 128.5C184.667 128.224 184.891 128 185.167 128H310.667C310.943 128 311.167 128.224 311.167 128.5V211.5C311.167 211.777 310.943 212 310.667 212H185.167C184.891 212 184.667 211.777 184.667 211.5V128.5ZM184.667 310.667V241.834C184.667 241.558 184.891 241.334 185.167 241.334H310.667C310.943 241.334 311.167 241.558 311.167 241.834V310.667C311.167 310.943 310.943 311.167 310.667 311.167H185.167C184.891 311.167 184.667 310.943 184.667 310.667ZM155.333 199.334V310.667C155.333 310.943 155.11 311.167 154.833 311.167H29.3334C29.0572 311.167 28.8334 310.943 28.8334 310.667V199.334C28.8334 199.058 29.0572 198.834 29.3334 198.834H154.833C155.11 198.834 155.333 199.058 155.333 199.334Z" stroke="#DFF009" stroke-opacity="0.2"/>
</svg>
