<svg width="340" height="340" viewBox="0 0 340 340" fill="none" xmlns="http://www.w3.org/2000/svg">
<path fill-rule="evenodd" clip-rule="evenodd" d="M42.001 169.5C42.2698 99.2041 99.2041 42.2698 169.5 42.001V0H170.5V42.001C240.796 42.2698 297.73 99.2041 297.999 169.5H340V170.5H297.999C297.73 240.796 240.796 297.73 170.5 297.999V340H169.5V297.999C99.2041 297.73 42.2698 240.796 42.001 170.5H0V169.5H42.001ZM43 170C43 99.8598 99.8598 43 170 43C240.14 43 297 99.8598 297 170C297 240.14 240.14 297 170 297C99.8598 297 43 240.14 43 170ZM196.755 170C196.755 184.777 184.776 196.755 170 196.755C155.224 196.755 143.245 184.777 143.245 170C143.245 155.224 155.224 143.245 170 143.245C184.776 143.245 196.755 155.224 196.755 170ZM197.755 170C197.755 185.329 185.329 197.755 170 197.755C154.671 197.755 142.245 185.329 142.245 170C142.245 154.672 154.671 142.245 170 142.245C185.329 142.245 197.755 154.672 197.755 170Z" fill="#DFF009" fill-opacity="0.2"/>
</svg>
