<svg width="112" height="32" viewBox="0 0 112 32" fill="none" xmlns="http://www.w3.org/2000/svg">
<path d="M56.6145 11.772V8.986C56.3438 9.13533 56.0545 9.252 55.7465 9.336C55.4385 9.41067 55.1118 9.448 54.7665 9.448C53.7585 9.448 53.0118 9.21467 52.5265 8.748C52.0505 8.272 51.8125 7.558 51.8125 6.606V4.73H53.0725V6.508C53.0725 7.17067 53.2218 7.65133 53.5205 7.95C53.8285 8.23933 54.3045 8.384 54.9485 8.384C55.2752 8.384 55.5692 8.35133 55.8305 8.286C56.0918 8.21133 56.3438 8.09467 56.5865 7.936V4.73H57.8605V11.772H56.6145Z" fill="#1F1F1F"/>
<path d="M63.9975 11.898C62.8775 11.898 61.9909 11.576 61.3375 10.932C60.6935 10.288 60.3715 9.40133 60.3715 8.272C60.3715 7.52533 60.5115 6.88133 60.7915 6.34C61.0809 5.78933 61.4775 5.36467 61.9815 5.066C62.4855 4.758 63.0735 4.604 63.7455 4.604C64.3895 4.604 64.9355 4.744 65.3835 5.024C65.8315 5.29467 66.1722 5.682 66.4055 6.186C66.6389 6.69 66.7555 7.28733 66.7555 7.978V8.398H61.3655V7.642H65.8875L65.6495 7.824C65.6495 7.096 65.4862 6.53133 65.1595 6.13C64.8422 5.72867 64.3709 5.528 63.7455 5.528C63.0642 5.528 62.5369 5.766 62.1635 6.242C61.7902 6.70867 61.6035 7.348 61.6035 8.16V8.286C61.6035 9.14467 61.8135 9.79333 62.2335 10.232C62.6629 10.6707 63.2555 10.89 64.0115 10.89C64.4315 10.89 64.8235 10.8293 65.1875 10.708C65.5515 10.5867 65.9015 10.386 66.2375 10.106L66.6575 10.988C66.3402 11.2773 65.9435 11.5013 65.4675 11.66C65.0009 11.8187 64.5109 11.898 63.9975 11.898Z" fill="#1F1F1F"/>
<path d="M72.2948 11.898C71.5948 11.898 70.9882 11.7533 70.4748 11.464C69.9615 11.1653 69.5602 10.7407 69.2708 10.19C68.9908 9.63 68.8508 8.96733 68.8508 8.202C68.8508 7.446 68.9955 6.802 69.2848 6.27C69.5742 5.72867 69.9755 5.318 70.4888 5.038C71.0022 4.74867 71.6042 4.604 72.2948 4.604C72.7522 4.604 73.1955 4.68333 73.6248 4.842C74.0542 4.99133 74.4042 5.21067 74.6748 5.5L74.2408 6.396C73.9702 6.13467 73.6715 5.94333 73.3448 5.822C73.0182 5.69133 72.6962 5.626 72.3788 5.626C71.6882 5.626 71.1468 5.85 70.7548 6.298C70.3628 6.73667 70.1668 7.376 70.1668 8.216C70.1668 9.06533 70.3628 9.71867 70.7548 10.176C71.1468 10.6333 71.6882 10.862 72.3788 10.862C72.6868 10.862 73.0042 10.8013 73.3308 10.68C73.6575 10.5587 73.9608 10.3673 74.2408 10.106L74.6748 10.988C74.3948 11.2867 74.0355 11.5153 73.5968 11.674C73.1675 11.8233 72.7335 11.898 72.2948 11.898Z" fill="#1F1F1F"/>
<path d="M78.5502 11.772V5.752H76.0162V4.73H82.3442V5.752H79.8102V11.772H78.5502Z" fill="#1F1F1F"/>
<path d="M84.205 11.772V4.73H85.465V7.642H89.189V4.73H90.449V11.772H89.189V8.65H85.465V11.772H84.205Z" fill="#1F1F1F"/>
<path d="M93.3269 11.772V4.73H94.5869V7.222H96.6589C97.5735 7.222 98.2595 7.418 98.7169 7.81C99.1835 8.19267 99.4169 8.748 99.4169 9.476C99.4169 9.94267 99.3095 10.3487 99.0949 10.694C98.8802 11.0393 98.5675 11.3053 98.1569 11.492C97.7462 11.6787 97.2469 11.772 96.6589 11.772H93.3269ZM94.5869 10.89H96.5189C97.0789 10.89 97.4989 10.778 97.7789 10.554C98.0682 10.3207 98.2129 9.966 98.2129 9.49C98.2129 9.014 98.0682 8.664 97.7789 8.44C97.4989 8.216 97.0789 8.104 96.5189 8.104H94.5869V10.89ZM100.439 11.772V4.73H101.699V11.772H100.439Z" fill="#1F1F1F"/>
<path d="M104.582 11.772V4.73H105.744V10.568H105.366L109.734 4.73H110.798V11.772H109.636V5.92H110.028L105.646 11.772H104.582ZM107.69 4.086C107.288 4.086 106.92 4.016 106.584 3.876C106.248 3.736 105.958 3.53533 105.716 3.274C105.482 3.00333 105.305 2.66733 105.184 2.266L105.912 2C106.08 2.448 106.308 2.77933 106.598 2.994C106.887 3.19933 107.251 3.302 107.69 3.302C108.138 3.302 108.506 3.204 108.796 3.008C109.085 2.812 109.337 2.48067 109.552 2.014L110.238 2.266C110.004 2.90067 109.664 3.36267 109.216 3.652C108.777 3.94133 108.268 4.086 107.69 4.086Z" fill="#1F1F1F"/>
<path d="M54.7525 27.898C54.1365 27.898 53.5952 27.7534 53.1285 27.464C52.6619 27.1747 52.2979 26.7547 52.0365 26.204C51.7752 25.6534 51.6445 25 51.6445 24.244C51.6445 23.488 51.7752 22.8394 52.0365 22.298C52.2979 21.7474 52.6619 21.3274 53.1285 21.038C53.5952 20.7487 54.1365 20.604 54.7525 20.604C55.3685 20.604 55.9052 20.758 56.3625 21.066C56.8292 21.374 57.1419 21.7987 57.3005 22.34H57.1325V17.468H58.4065V27.772H57.1465V26.134H57.3005C57.1512 26.6847 56.8432 27.1187 56.3765 27.436C55.9192 27.744 55.3779 27.898 54.7525 27.898ZM55.0465 26.89C55.6812 26.89 56.1899 26.666 56.5725 26.218C56.9645 25.77 57.1605 25.112 57.1605 24.244C57.1605 23.376 56.9645 22.7227 56.5725 22.284C56.1899 21.8454 55.6812 21.626 55.0465 21.626C54.4119 21.626 53.8985 21.8454 53.5065 22.284C53.1239 22.7227 52.9325 23.376 52.9325 24.244C52.9325 25.112 53.1239 25.77 53.5065 26.218C53.8985 26.666 54.4119 26.89 55.0465 26.89Z" fill="#1F1F1F"/>
<path d="M61.2411 27.772V20.73H62.5151V27.772H61.2411ZM61.1291 19.19V17.818H62.6411V19.19H61.1291Z" fill="#1F1F1F"/>
<path d="M68.4814 30.908C67.8654 30.908 67.3007 30.8334 66.7874 30.684C66.2741 30.5347 65.8121 30.306 65.4014 29.998L65.7374 29.06C66.0267 29.256 66.3114 29.4147 66.5914 29.536C66.8714 29.6574 67.1607 29.746 67.4594 29.802C67.7674 29.858 68.0847 29.886 68.4114 29.886C69.1021 29.886 69.6201 29.7087 69.9654 29.354C70.3107 28.9994 70.4834 28.4954 70.4834 27.842V25.868H70.6234C70.4741 26.4 70.1661 26.8247 69.6994 27.142C69.2421 27.45 68.7007 27.604 68.0754 27.604C67.4407 27.604 66.8854 27.464 66.4094 27.184C65.9427 26.8947 65.5787 26.4887 65.3174 25.966C65.0561 25.434 64.9254 24.8134 64.9254 24.104C64.9254 23.3854 65.0561 22.7647 65.3174 22.242C65.5787 21.7194 65.9427 21.318 66.4094 21.038C66.8854 20.7487 67.4407 20.604 68.0754 20.604C68.7007 20.604 69.2421 20.758 69.6994 21.066C70.1567 21.374 70.4601 21.7987 70.6094 22.34L70.4834 22.214L70.6094 20.73H71.8414C71.8134 21.01 71.7854 21.29 71.7574 21.57C71.7387 21.85 71.7294 22.1254 71.7294 22.396V27.688C71.7294 28.7334 71.4541 29.5314 70.9034 30.082C70.3621 30.6327 69.5547 30.908 68.4814 30.908ZM68.3554 26.596C68.9994 26.596 69.5127 26.3767 69.8954 25.938C70.2781 25.4994 70.4694 24.888 70.4694 24.104C70.4694 23.3107 70.2781 22.6994 69.8954 22.27C69.5127 21.8407 68.9994 21.626 68.3554 21.626C67.7021 21.626 67.1794 21.8407 66.7874 22.27C66.4047 22.6994 66.2134 23.3107 66.2134 24.104C66.2134 24.888 66.4047 25.4994 66.7874 25.938C67.1794 26.3767 67.7021 26.596 68.3554 26.596Z" fill="#1F1F1F"/>
<path d="M74.563 27.772V20.73H75.837V27.772H74.563ZM74.451 19.19V17.818H75.963V19.19H74.451Z" fill="#1F1F1F"/>
<path d="M81.2993 27.898C80.5619 27.898 80.0019 27.6974 79.6193 27.296C79.2459 26.8854 79.0593 26.2694 79.0593 25.448V21.71H77.6873V20.73H79.0593V18.84L80.3333 18.49V20.73H82.3213V21.71H80.3333V25.336C80.3333 25.8774 80.4266 26.2647 80.6133 26.498C80.8093 26.722 81.0893 26.834 81.4533 26.834C81.6399 26.834 81.7986 26.82 81.9293 26.792C82.0693 26.7547 82.1953 26.7127 82.3073 26.666V27.716C82.1673 27.772 82.0039 27.814 81.8173 27.842C81.6399 27.8794 81.4673 27.898 81.2993 27.898Z" fill="#1F1F1F"/>
<path d="M87.0455 27.898C86.4295 27.898 85.8882 27.7534 85.4215 27.464C84.9548 27.1747 84.5908 26.7547 84.3295 26.204C84.0682 25.6534 83.9375 25 83.9375 24.244C83.9375 23.488 84.0682 22.8394 84.3295 22.298C84.5908 21.7474 84.9548 21.3274 85.4215 21.038C85.8882 20.7487 86.4295 20.604 87.0455 20.604C87.6708 20.604 88.2122 20.7627 88.6695 21.08C89.1362 21.388 89.4442 21.8127 89.5935 22.354H89.4255L89.5795 20.73H90.8115C90.7835 21.01 90.7555 21.29 90.7275 21.57C90.7088 21.85 90.6995 22.1254 90.6995 22.396V27.772H89.4255V26.162H89.5795C89.4302 26.694 89.1222 27.1187 88.6555 27.436C88.1982 27.744 87.6615 27.898 87.0455 27.898ZM87.3395 26.89C87.9742 26.89 88.4828 26.666 88.8655 26.218C89.2482 25.77 89.4395 25.112 89.4395 24.244C89.4395 23.376 89.2482 22.7227 88.8655 22.284C88.4828 21.8454 87.9742 21.626 87.3395 21.626C86.7048 21.626 86.1915 21.8454 85.7995 22.284C85.4168 22.7227 85.2255 23.376 85.2255 24.244C85.2255 25.112 85.4168 25.77 85.7995 26.218C86.1822 26.666 86.6955 26.89 87.3395 26.89Z" fill="#1F1F1F"/>
<path d="M93.5341 27.772V17.468H94.8081V27.772H93.5341Z" fill="#1F1F1F"/>
<path fill-rule="evenodd" clip-rule="evenodd" d="M31.1316 2.77197H23.3158V21.2457H31.1316C36.2329 21.2457 40.3684 17.1102 40.3684 12.0088C40.3684 6.90745 36.2329 2.77197 31.1316 2.77197ZM27.5789 16.9825V7.03513H31.1316C33.8785 7.03513 36.1053 9.26192 36.1053 12.0088C36.1053 14.7557 33.8785 16.9825 31.1316 16.9825H27.5789ZM2 11.2983V17.693C2 21.2247 4.86302 24.0878 8.39474 24.0878H13.3684V29.772H17.6316V11.2983H13.3684V19.8246H8.39474C7.2175 19.8246 6.26316 18.8703 6.26316 17.693V11.2983H2ZM17.6316 2.77197H2V7.03513H17.6316V2.77197ZM23.3158 25.5088H40.3684V29.772H23.3158V25.5088Z" fill="#1F1F1F"/>
</svg>
