<svg width="112" height="32" viewBox="0 0 112 32" fill="none" xmlns="http://www.w3.org/2000/svg">
<path d="M56.6135 11.772V8.986C56.3429 9.13533 56.0535 9.252 55.7455 9.336C55.4375 9.41067 55.1109 9.448 54.7655 9.448C53.7575 9.448 53.0109 9.21467 52.5255 8.748C52.0495 8.272 51.8115 7.558 51.8115 6.606V4.73H53.0715V6.508C53.0715 7.17067 53.2209 7.65133 53.5195 7.95C53.8275 8.23933 54.3035 8.384 54.9475 8.384C55.2742 8.384 55.5682 8.35133 55.8295 8.286C56.0909 8.21133 56.3429 8.09467 56.5855 7.936V4.73H57.8595V11.772H56.6135Z" fill="white"/>
<path d="M63.9966 11.898C62.8766 11.898 61.9899 11.576 61.3366 10.932C60.6926 10.288 60.3706 9.40133 60.3706 8.272C60.3706 7.52533 60.5106 6.88133 60.7906 6.34C61.0799 5.78933 61.4766 5.36467 61.9806 5.066C62.4846 4.758 63.0726 4.604 63.7446 4.604C64.3886 4.604 64.9346 4.744 65.3826 5.024C65.8306 5.29467 66.1712 5.682 66.4046 6.186C66.6379 6.69 66.7546 7.28733 66.7546 7.978V8.398H61.3646V7.642H65.8866L65.6486 7.824C65.6486 7.096 65.4852 6.53133 65.1586 6.13C64.8412 5.72867 64.3699 5.528 63.7446 5.528C63.0632 5.528 62.5359 5.766 62.1626 6.242C61.7892 6.70867 61.6026 7.348 61.6026 8.16V8.286C61.6026 9.14467 61.8126 9.79333 62.2326 10.232C62.6619 10.6707 63.2546 10.89 64.0106 10.89C64.4306 10.89 64.8226 10.8293 65.1866 10.708C65.5506 10.5867 65.9006 10.386 66.2366 10.106L66.6566 10.988C66.3392 11.2773 65.9426 11.5013 65.4666 11.66C64.9999 11.8187 64.5099 11.898 63.9966 11.898Z" fill="white"/>
<path d="M72.2939 11.898C71.5939 11.898 70.9872 11.7533 70.4739 11.464C69.9605 11.1653 69.5592 10.7407 69.2699 10.19C68.9899 9.63 68.8499 8.96733 68.8499 8.202C68.8499 7.446 68.9945 6.802 69.2839 6.27C69.5732 5.72867 69.9745 5.318 70.4879 5.038C71.0012 4.74867 71.6032 4.604 72.2939 4.604C72.7512 4.604 73.1945 4.68333 73.6239 4.842C74.0532 4.99133 74.4032 5.21067 74.6739 5.5L74.2399 6.396C73.9692 6.13467 73.6705 5.94333 73.3439 5.822C73.0172 5.69133 72.6952 5.626 72.3779 5.626C71.6872 5.626 71.1459 5.85 70.7539 6.298C70.3619 6.73667 70.1659 7.376 70.1659 8.216C70.1659 9.06533 70.3619 9.71867 70.7539 10.176C71.1459 10.6333 71.6872 10.862 72.3779 10.862C72.6859 10.862 73.0032 10.8013 73.3299 10.68C73.6565 10.5587 73.9599 10.3673 74.2399 10.106L74.6739 10.988C74.3939 11.2867 74.0345 11.5153 73.5959 11.674C73.1665 11.8233 72.7325 11.898 72.2939 11.898Z" fill="white"/>
<path d="M78.5492 11.772V5.752H76.0152V4.73H82.3432V5.752H79.8092V11.772H78.5492Z" fill="white"/>
<path d="M84.204 11.772V4.73H85.464V7.642H89.188V4.73H90.448V11.772H89.188V8.65H85.464V11.772H84.204Z" fill="white"/>
<path d="M93.3259 11.772V4.73H94.5859V7.222H96.6579C97.5726 7.222 98.2586 7.418 98.7159 7.81C99.1826 8.19267 99.4159 8.748 99.4159 9.476C99.4159 9.94267 99.3086 10.3487 99.0939 10.694C98.8792 11.0393 98.5666 11.3053 98.1559 11.492C97.7452 11.6787 97.2459 11.772 96.6579 11.772H93.3259ZM94.5859 10.89H96.5179C97.0779 10.89 97.4979 10.778 97.7779 10.554C98.0672 10.3207 98.2119 9.966 98.2119 9.49C98.2119 9.014 98.0672 8.664 97.7779 8.44C97.4979 8.216 97.0779 8.104 96.5179 8.104H94.5859V10.89ZM100.438 11.772V4.73H101.698V11.772H100.438Z" fill="white"/>
<path d="M104.581 11.772V4.73H105.743V10.568H105.365L109.733 4.73H110.797V11.772H109.635V5.92H110.027L105.645 11.772H104.581ZM107.689 4.086C107.287 4.086 106.919 4.016 106.583 3.876C106.247 3.736 105.957 3.53533 105.715 3.274C105.481 3.00333 105.304 2.66733 105.183 2.266L105.911 2C106.079 2.448 106.307 2.77933 106.597 2.994C106.886 3.19933 107.25 3.302 107.689 3.302C108.137 3.302 108.505 3.204 108.795 3.008C109.084 2.812 109.336 2.48067 109.551 2.014L110.237 2.266C110.003 2.90067 109.663 3.36267 109.215 3.652C108.776 3.94133 108.267 4.086 107.689 4.086Z" fill="white"/>
<path d="M54.7516 27.898C54.1356 27.898 53.5942 27.7533 53.1276 27.464C52.6609 27.1746 52.2969 26.7546 52.0356 26.204C51.7742 25.6533 51.6436 25 51.6436 24.244C51.6436 23.488 51.7742 22.8393 52.0356 22.298C52.2969 21.7473 52.6609 21.3273 53.1276 21.038C53.5942 20.7486 54.1356 20.604 54.7516 20.604C55.3676 20.604 55.9042 20.758 56.3616 21.066C56.8282 21.374 57.1409 21.7986 57.2996 22.34H57.1316V17.468H58.4056V27.772H57.1456V26.134H57.2996C57.1502 26.6846 56.8422 27.1186 56.3756 27.436C55.9182 27.744 55.3769 27.898 54.7516 27.898ZM55.0456 26.89C55.6802 26.89 56.1889 26.666 56.5716 26.218C56.9636 25.77 57.1596 25.112 57.1596 24.244C57.1596 23.376 56.9636 22.7226 56.5716 22.284C56.1889 21.8453 55.6802 21.626 55.0456 21.626C54.4109 21.626 53.8976 21.8453 53.5056 22.284C53.1229 22.7226 52.9316 23.376 52.9316 24.244C52.9316 25.112 53.1229 25.77 53.5056 26.218C53.8976 26.666 54.4109 26.89 55.0456 26.89Z" fill="white"/>
<path d="M61.2401 27.772V20.73H62.5141V27.772H61.2401ZM61.1281 19.19V17.818H62.6401V19.19H61.1281Z" fill="white"/>
<path d="M68.4804 30.908C67.8644 30.908 67.2997 30.8333 66.7864 30.684C66.2731 30.5346 65.8111 30.306 65.4004 29.998L65.7364 29.06C66.0257 29.256 66.3104 29.4146 66.5904 29.536C66.8704 29.6573 67.1597 29.746 67.4584 29.802C67.7664 29.858 68.0837 29.886 68.4104 29.886C69.1011 29.886 69.6191 29.7086 69.9644 29.354C70.3097 28.9993 70.4824 28.4953 70.4824 27.842V25.868H70.6224C70.4731 26.4 70.1651 26.8246 69.6984 27.142C69.2411 27.45 68.6997 27.604 68.0744 27.604C67.4397 27.604 66.8844 27.464 66.4084 27.184C65.9417 26.8946 65.5777 26.4886 65.3164 25.966C65.0551 25.434 64.9244 24.8133 64.9244 24.104C64.9244 23.3853 65.0551 22.7646 65.3164 22.242C65.5777 21.7193 65.9417 21.318 66.4084 21.038C66.8844 20.7486 67.4397 20.604 68.0744 20.604C68.6997 20.604 69.2411 20.758 69.6984 21.066C70.1557 21.374 70.4591 21.7986 70.6084 22.34L70.4824 22.214L70.6084 20.73H71.8404C71.8124 21.01 71.7844 21.29 71.7564 21.57C71.7377 21.85 71.7284 22.1253 71.7284 22.396V27.688C71.7284 28.7333 71.4531 29.5313 70.9024 30.082C70.3611 30.6326 69.5537 30.908 68.4804 30.908ZM68.3544 26.596C68.9984 26.596 69.5117 26.3766 69.8944 25.938C70.2771 25.4993 70.4684 24.888 70.4684 24.104C70.4684 23.3106 70.2771 22.6993 69.8944 22.27C69.5117 21.8406 68.9984 21.626 68.3544 21.626C67.7011 21.626 67.1784 21.8406 66.7864 22.27C66.4037 22.6993 66.2124 23.3106 66.2124 24.104C66.2124 24.888 66.4037 25.4993 66.7864 25.938C67.1784 26.3766 67.7011 26.596 68.3544 26.596Z" fill="white"/>
<path d="M74.562 27.772V20.73H75.836V27.772H74.562ZM74.45 19.19V17.818H75.962V19.19H74.45Z" fill="white"/>
<path d="M81.2983 27.898C80.561 27.898 80.001 27.6973 79.6183 27.296C79.245 26.8853 79.0583 26.2693 79.0583 25.448V21.71H77.6863V20.73H79.0583V18.84L80.3323 18.49V20.73H82.3203V21.71H80.3323V25.336C80.3323 25.8773 80.4256 26.2646 80.6123 26.498C80.8083 26.722 81.0883 26.834 81.4523 26.834C81.639 26.834 81.7976 26.82 81.9283 26.792C82.0683 26.7546 82.1943 26.7126 82.3063 26.666V27.716C82.1663 27.772 82.003 27.814 81.8163 27.842C81.639 27.8793 81.4663 27.898 81.2983 27.898Z" fill="white"/>
<path d="M87.0445 27.898C86.4285 27.898 85.8872 27.7533 85.4205 27.464C84.9539 27.1746 84.5899 26.7546 84.3285 26.204C84.0672 25.6533 83.9365 25 83.9365 24.244C83.9365 23.488 84.0672 22.8393 84.3285 22.298C84.5899 21.7473 84.9539 21.3273 85.4205 21.038C85.8872 20.7486 86.4285 20.604 87.0445 20.604C87.6699 20.604 88.2112 20.7626 88.6685 21.08C89.1352 21.388 89.4432 21.8126 89.5925 22.354H89.4245L89.5785 20.73H90.8105C90.7825 21.01 90.7545 21.29 90.7265 21.57C90.7079 21.85 90.6985 22.1253 90.6985 22.396V27.772H89.4245V26.162H89.5785C89.4292 26.694 89.1212 27.1186 88.6545 27.436C88.1972 27.744 87.6605 27.898 87.0445 27.898ZM87.3385 26.89C87.9732 26.89 88.4819 26.666 88.8645 26.218C89.2472 25.77 89.4385 25.112 89.4385 24.244C89.4385 23.376 89.2472 22.7226 88.8645 22.284C88.4819 21.8453 87.9732 21.626 87.3385 21.626C86.7039 21.626 86.1905 21.8453 85.7985 22.284C85.4159 22.7226 85.2245 23.376 85.2245 24.244C85.2245 25.112 85.4159 25.77 85.7985 26.218C86.1812 26.666 86.6945 26.89 87.3385 26.89Z" fill="white"/>
<path d="M93.5331 27.772V17.468H94.8071V27.772H93.5331Z" fill="white"/>
<path fill-rule="evenodd" clip-rule="evenodd" d="M31.1316 2.77197H23.3158V21.2457H31.1316C36.2329 21.2457 40.3684 17.1102 40.3684 12.0088C40.3684 6.90745 36.2329 2.77197 31.1316 2.77197ZM27.5789 16.9825V7.03513H31.1316C33.8785 7.03513 36.1053 9.26192 36.1053 12.0088C36.1053 14.7557 33.8785 16.9825 31.1316 16.9825H27.5789ZM2 11.2983V17.693C2 21.2247 4.86302 24.0878 8.39474 24.0878H13.3684V29.772H17.6316V11.2983H13.3684V19.8246H8.39474C7.2175 19.8246 6.26316 18.8703 6.26316 17.693V11.2983H2ZM17.6316 2.77197H2V7.03513H17.6316V2.77197ZM23.3158 25.5088H40.3684V29.772H23.3158V25.5088Z" fill="white"/>
</svg>
