<?xml version="1.0" encoding="utf-8"?><svg width="28" height="28" xmlns="http://www.w3.org/2000/svg" viewBox="0 0 28 28"><circle cx="14" cy="14" r="14" transform="rotate(-180 14 14)" class="csocial__circle"/><path fill-rule="evenodd" clip-rule="evenodd" d="M19.565 12.084c.023.406.035 1.138.035 2.196 0 1.057-.012 1.79-.035 2.196-.046.96-.332 1.704-.859 2.23-.526.527-1.27.813-2.23.86-.406.022-1.138.034-2.196.034-1.057 0-1.79-.012-2.196-.035-.96-.046-1.704-.332-2.23-.859-.527-.526-.813-1.27-.86-2.23a45.825 45.825 0 01-.034-2.196c0-1.058.012-1.79.035-2.196.046-.96.332-1.704.859-2.23.526-.527 1.27-.813 2.23-.86a45.822 45.822 0 012.196-.034c1.058 0 1.79.011 2.196.035.96.046 1.704.332 2.23.859.527.526.813 1.27.86 2.23zm-1.223-.658c0-.226-.08-.42-.241-.58a.792.792 0 00-.581-.242c-.226 0-.42.08-.58.242a.792.792 0 00-.242.58c0 .227.08.42.241.581.161.161.355.242.581.242.226 0 .42-.08.58-.242a.792.792 0 00.242-.58zm-2.025 2.854a2.037 2.037 0 11-4.075 0 2.037 2.037 0 014.075 0zm.864 0a2.902 2.902 0 11-5.803 0 2.902 2.902 0 015.803 0z" fill="#1F1F1F"/></svg>