<?xml version="1.0" encoding="utf-8"?><svg width="112" height="32" fill="none" xmlns="http://www.w3.org/2000/svg" viewBox="0 0 112 32"><path d="M56.614 11.772V8.986c-.271.15-.56.266-.868.35a4.148 4.148 0 01-.98.112c-1.008 0-1.755-.233-2.24-.7-.477-.476-.715-1.19-.715-2.142V4.73h1.26v1.778c0 .663.15 1.143.449 1.442.307.29.783.434 1.427.434.327 0 .621-.033.883-.098.26-.075.513-.191.756-.35V4.73h1.273v7.042h-1.245zM63.997 11.898c-1.12 0-2.007-.322-2.66-.966-.644-.644-.966-1.53-.966-2.66 0-.747.14-1.39.42-1.932a3.14 3.14 0 011.19-1.274c.504-.308 1.092-.462 1.764-.462.644 0 1.19.14 1.638.42.448.27.788.658 1.022 1.162.233.504.35 1.101.35 1.792v.42h-5.39v-.756h4.522l-.238.182c0-.728-.164-1.293-.49-1.694-.318-.401-.79-.602-1.414-.602-.682 0-1.21.238-1.582.714-.374.467-.56 1.106-.56 1.918v.126c0 .859.21 1.507.63 1.946.429.439 1.022.658 1.778.658.42 0 .812-.06 1.176-.182a3.246 3.246 0 001.05-.602l.42.882c-.318.29-.714.513-1.19.672a4.535 4.535 0 01-1.47.238zM72.294 11.898c-.7 0-1.307-.145-1.82-.434a3.111 3.111 0 01-1.204-1.274c-.28-.56-.42-1.223-.42-1.988 0-.756.145-1.4.434-1.932.29-.541.69-.952 1.204-1.232.513-.29 1.115-.434 1.806-.434.457 0 .9.08 1.33.238.43.15.78.369 1.05.658l-.434.896a2.576 2.576 0 00-.896-.574 2.588 2.588 0 00-.966-.196c-.69 0-1.232.224-1.624.672-.392.439-.588 1.078-.588 1.918 0 .85.196 1.503.588 1.96.392.457.933.686 1.624.686.308 0 .625-.06.952-.182.326-.121.63-.313.91-.574l.434.882c-.28.299-.64.527-1.078.686a3.94 3.94 0 01-1.302.224zM78.55 11.772v-6.02h-2.535V4.73h6.328v1.022H79.81v6.02h-1.26zM84.204 11.772V4.73h1.26v2.912h3.724V4.73h1.26v7.042h-1.26V8.65h-3.724v3.122h-1.26zM93.326 11.772V4.73h1.26v2.492h2.072c.915 0 1.6.196 2.058.588.467.383.7.938.7 1.666 0 .467-.107.873-.322 1.218a2.085 2.085 0 01-.938.798c-.41.187-.91.28-1.498.28h-3.332zm1.26-.882h1.932c.56 0 .98-.112 1.26-.336.29-.233.434-.588.434-1.064 0-.476-.145-.826-.434-1.05-.28-.224-.7-.336-1.26-.336h-1.932v2.786zm5.852.882V4.73h1.26v7.042h-1.26zM104.581 11.772V4.73h1.162v5.838h-.378l4.368-5.838h1.064v7.042h-1.162V5.92h.392l-4.382 5.852h-1.064zm3.108-7.686c-.402 0-.77-.07-1.106-.21a2.455 2.455 0 01-.868-.602 2.717 2.717 0 01-.532-1.008l.728-.266c.168.448.396.78.686.994.289.205.653.308 1.092.308.448 0 .816-.098 1.106-.294.289-.196.541-.527.756-.994l.686.252c-.234.635-.574 1.097-1.022 1.386-.439.29-.948.434-1.526.434zM54.752 27.898c-.616 0-1.158-.145-1.624-.434-.467-.29-.831-.71-1.092-1.26-.262-.55-.392-1.204-.392-1.96s.13-1.405.392-1.946c.26-.55.625-.97 1.092-1.26.466-.29 1.008-.434 1.624-.434.616 0 1.152.154 1.61.462.466.308.779.733.938 1.274h-.168v-4.872h1.274v10.304h-1.26v-1.638h.154c-.15.55-.458.985-.924 1.302-.458.308-1 .462-1.624.462zm.294-1.008c.634 0 1.143-.224 1.526-.672.392-.448.588-1.106.588-1.974 0-.868-.196-1.521-.588-1.96-.383-.439-.892-.658-1.526-.658-.635 0-1.148.22-1.54.658-.383.439-.574 1.092-.574 1.96 0 .868.19 1.526.574 1.974.392.448.905.672 1.54.672zM61.24 27.772V20.73h1.274v7.042H61.24zm-.112-8.582v-1.372h1.512v1.372h-1.512zM68.48 30.908a6.05 6.05 0 01-1.694-.224 4.283 4.283 0 01-1.386-.686l.336-.938c.29.196.574.355.854.476s.57.21.868.266c.308.056.626.084.952.084.691 0 1.21-.177 1.554-.532.346-.355.518-.859.518-1.512v-1.974h.14c-.149.532-.457.957-.924 1.274-.457.308-.998.462-1.624.462-.634 0-1.19-.14-1.666-.42a2.947 2.947 0 01-1.092-1.218c-.26-.532-.392-1.153-.392-1.862 0-.719.131-1.34.392-1.862a2.852 2.852 0 011.092-1.204c.476-.29 1.032-.434 1.666-.434.626 0 1.167.154 1.624.462.458.308.761.733.91 1.274l-.126-.126.126-1.484h1.232l-.084.84c-.018.28-.028.555-.028.826v5.292c0 1.045-.275 1.843-.826 2.394-.54.55-1.348.826-2.422.826zm-.126-4.312c.644 0 1.158-.22 1.54-.658.383-.439.574-1.05.574-1.834 0-.793-.19-1.405-.574-1.834-.382-.43-.896-.644-1.54-.644-.653 0-1.176.215-1.568.644-.382.43-.574 1.04-.574 1.834 0 .784.192 1.395.574 1.834.392.439.915.658 1.568.658zM74.562 27.772V20.73h1.274v7.042h-1.274zm-.112-8.582v-1.372h1.512v1.372H74.45zM81.298 27.898c-.737 0-1.297-.2-1.68-.602-.373-.41-.56-1.027-.56-1.848V21.71h-1.372v-.98h1.372v-1.89l1.274-.35v2.24h1.988v.98h-1.988v3.626c0 .541.094.929.28 1.162.196.224.476.336.84.336.187 0 .346-.014.476-.042.14-.037.266-.08.378-.126v1.05c-.14.056-.303.098-.49.126-.177.037-.35.056-.518.056zM87.044 27.898c-.615 0-1.157-.145-1.623-.434-.467-.29-.831-.71-1.093-1.26-.26-.55-.392-1.204-.392-1.96s.131-1.405.392-1.946c.262-.55.626-.97 1.093-1.26.466-.29 1.007-.434 1.623-.434.626 0 1.167.159 1.624.476.467.308.775.733.924 1.274h-.168l.154-1.624h1.233l-.085.84c-.018.28-.028.555-.028.826v5.376h-1.273v-1.61h.154c-.15.532-.458.957-.924 1.274-.458.308-.995.462-1.61.462zm.294-1.008c.635 0 1.144-.224 1.527-.672.382-.448.574-1.106.574-1.974 0-.868-.192-1.521-.574-1.96-.383-.439-.892-.658-1.526-.658-.635 0-1.148.22-1.54.658-.383.439-.575 1.092-.575 1.96 0 .868.192 1.526.575 1.974.382.448.895.672 1.54.672zM93.533 27.772V17.468h1.274v10.304h-1.274z" fill="#fff"/><path fill-rule="evenodd" clip-rule="evenodd" d="M31.132 2.772h-7.816v18.474h7.816a9.237 9.237 0 000-18.474zm-3.553 14.21V7.036h3.553a4.974 4.974 0 110 9.948h-3.553zM2 11.299v6.395a6.395 6.395 0 006.395 6.395h4.973v5.684h4.264V11.298h-4.264v8.527H8.395a2.132 2.132 0 01-2.132-2.132v-6.395H2zm15.632-8.526H2v4.263h15.632V2.772zm5.684 22.737h17.052v4.263H23.316v-4.263z" fill="#fff"/></svg>