<?xml version="1.0" encoding="utf-8"?><svg width="28" height="28" xmlns="http://www.w3.org/2000/svg" viewBox="0 0 28 28"><circle cx="14" cy="14" r="14" transform="rotate(-180 14 14)" class="jsocial__circle"/><path d="M13.816 11.15l.028.469-.46-.057c-1.674-.22-3.136-.965-4.377-2.216l-.607-.62-.157.458c-.33 1.022-.12 2.1.57 2.826.368.401.286.459-.349.22-.22-.076-.414-.134-.432-.105-.065.067.156.936.33 1.28.24.477.727.945 1.26 1.222l.451.22-.533.009c-.515 0-.533.01-.478.21.184.62.91 1.28 1.72 1.566l.57.2-.497.306c-.736.44-1.6.688-2.465.707-.413.01-.754.048-.754.076 0 .096 1.122.63 1.775.84 1.959.621 4.286.354 6.033-.706 1.241-.754 2.483-2.254 3.062-3.705.313-.774.625-2.187.625-2.865 0-.44.028-.496.543-1.022.304-.305.589-.64.644-.735.092-.181.083-.181-.386-.02-.782.287-.892.25-.506-.18.285-.306.625-.86.625-1.022 0-.029-.138.019-.294.105a5.05 5.05 0 01-.81.324l-.496.163-.45-.315c-.249-.172-.598-.363-.782-.42-.47-.134-1.187-.115-1.61.038a2.735 2.735 0 00-1.793 2.75z" fill="#1F1F1F"/></svg>